<?xml version="1.0" encoding="UTF-8"?>
<svg xmlns="http://www.w3.org/2000/svg" xmlns:xlink="http://www.w3.org/1999/xlink" width="74pt" height="101pt" viewBox="0 0 74 101" version="1.1">
<g id="surface1">
<path style=" " d="M 7.847656 83.550781 C 9.863281 83.550781 11.425781 84.085938 12.539063 85.148438 C 13.65625 86.210938 14.273438 87.417969 14.394531 88.769531 L 12.292969 88.769531 C 12.050781 87.742188 11.578125 86.929688 10.863281 86.328125 C 10.152344 85.730469 9.15625 85.429688 7.867188 85.429688 C 6.300781 85.429688 5.035156 85.980469 4.070313 87.085938 C 3.101563 88.183594 2.617188 89.875 2.617188 92.152344 C 2.617188 94.015625 3.054688 95.53125 3.925781 96.6875 C 4.792969 97.851563 6.097656 98.433594 7.824219 98.433594 C 9.414063 98.433594 10.625 97.820313 11.457031 96.601563 C 11.898438 95.957031 12.226563 95.109375 12.445313 94.0625 L 14.546875 94.0625 C 14.359375 95.738281 13.738281 97.144531 12.679688 98.28125 C 11.414063 99.644531 9.710938 100.328125 7.5625 100.328125 C 5.710938 100.328125 4.15625 99.769531 2.902344 98.648438 C 1.25 97.167969 0.417969 94.878906 0.417969 91.785156 C 0.417969 89.433594 1.042969 87.507813 2.285156 86.003906 C 3.628906 84.371094 5.484375 83.550781 7.847656 83.550781 Z M 17.171875 83.984375 L 19.328125 83.984375 L 19.328125 98.019531 L 27.398438 98.019531 L 27.398438 99.917969 L 17.171875 99.917969 Z M 36.394531 83.550781 C 39.207031 83.550781 41.289063 84.457031 42.640625 86.265625 C 43.695313 87.675781 44.226563 89.476563 44.226563 91.671875 C 44.226563 94.054688 43.621094 96.03125 42.410156 97.605469 C 40.992188 99.457031 38.976563 100.382813 36.351563 100.382813 C 33.902344 100.382813 31.972656 99.574219 30.570313 97.953125 C 29.320313 96.394531 28.695313 94.417969 28.695313 92.03125 C 28.695313 89.878906 29.230469 88.035156 30.300781 86.503906 C 31.671875 84.535156 33.707031 83.550781 36.394531 83.550781 Z M 36.609375 98.449219 C 38.515625 98.449219 39.890625 97.769531 40.738281 96.40625 C 41.585938 95.046875 42.011719 93.480469 42.011719 91.707031 C 42.011719 89.832031 41.523438 88.328125 40.542969 87.1875 C 39.5625 86.042969 38.226563 85.472656 36.527344 85.472656 C 34.878906 85.472656 33.53125 86.039063 32.492188 87.167969 C 31.453125 88.300781 30.929688 89.96875 30.929688 92.171875 C 30.929688 93.9375 31.378906 95.425781 32.269531 96.636719 C 33.160156 97.847656 34.609375 98.449219 36.609375 98.449219 Z M 48.199219 94.773438 C 48.25 95.683594 48.464844 96.414063 48.839844 96.976563 C 49.554688 98.03125 50.816406 98.5625 52.625 98.5625 C 53.433594 98.5625 54.171875 98.449219 54.835938 98.214844 C 56.121094 97.765625 56.765625 96.960938 56.765625 95.808594 C 56.765625 94.9375 56.496094 94.320313 55.953125 93.953125 C 55.402344 93.589844 54.542969 93.277344 53.371094 93.011719 L 51.214844 92.519531 C 49.800781 92.203125 48.808594 91.851563 48.222656 91.46875 C 47.210938 90.804688 46.707031 89.808594 46.707031 88.488281 C 46.707031 87.054688 47.199219 85.878906 48.191406 84.964844 C 49.175781 84.042969 50.582031 83.585938 52.398438 83.585938 C 54.066406 83.585938 55.484375 83.988281 56.65625 84.796875 C 57.820313 85.597656 58.40625 86.886719 58.40625 88.660156 L 56.375 88.660156 C 56.269531 87.804688 56.035156 87.15625 55.679688 86.699219 C 55.027344 85.867188 53.90625 85.453125 52.332031 85.453125 C 51.058594 85.453125 50.144531 85.71875 49.589844 86.253906 C 49.03125 86.789063 48.753906 87.410156 48.753906 88.117188 C 48.753906 88.898438 49.078125 89.472656 49.730469 89.832031 C 50.15625 90.0625 51.121094 90.351563 52.625 90.699219 L 54.859375 91.207031 C 55.9375 91.457031 56.765625 91.792969 57.355469 92.21875 C 58.363281 92.960938 58.871094 94.042969 58.871094 95.460938 C 58.871094 97.226563 58.230469 98.484375 56.945313 99.242188 C 55.660156 100 54.171875 100.382813 52.472656 100.382813 C 50.492188 100.382813 48.941406 99.875 47.820313 98.863281 C 46.699219 97.863281 46.148438 96.496094 46.171875 94.773438 Z M 61.804688 83.984375 L 73.417969 83.984375 L 73.417969 85.941406 L 63.910156 85.941406 L 63.910156 90.773438 L 72.703125 90.773438 L 72.703125 92.617188 L 63.910156 92.617188 L 63.910156 98.019531 L 73.582031 98.019531 L 73.582031 99.917969 L 61.804688 99.917969 L 61.804688 83.984375 "/>
<path style=" " d="M 16.796875 73.664063 L 4.828125 73.664063 L 31.066406 36.105469 L 6.480469 0.382813 L 18.890625 0.382813 L 37.605469 28.425781 L 56.164063 0.382813 L 67.980469 0.382813 L 43.394531 36.105469 L 69.171875 73.664063 L 56.859375 73.664063 L 37.109375 43.527344 L 16.796875 73.664063 "/>
</g>
</svg>
