<svg height="512" viewBox="0 0 64 64" width="512" xmlns="http://www.w3.org/2000/svg"><g id="hygiene"><path d="m52.8 50.27a3.025 3.025 0 0 0 -2.65-.48l-14.29 4.21h-7.6l-5.4-3h8.14a3.009 3.009 0 0 0 3-3v-.5a3.024 3.024 0 0 0 -2.15-2.88l-15.57-4.58a.863.863 0 0 0 -.28-.04h-6v-2a1 1 0 0 0 -1-1h-6a1 1 0 0 0 -1 1v22a1 1 0 0 0 1 1h6a1 1 0 0 0 1-1v-1.61l10.68 3.56a1.185 1.185 0 0 0 .32.05h15a.919.919 0 0 0 .33-.06l15.67-5.53a3 3 0 0 0 2-2.83v-.91a2.984 2.984 0 0 0 -1.2-2.4zm-44.8 8.73h-4v-20h4zm44-5.42a1 1 0 0 1 -.67.95l-15.5 5.47h-14.67l-11.16-3.72v-14.28h5.86l15.42 4.54a1 1 0 0 1 .72.96v.5a1 1 0 0 1 -1 1h-12a1 1 0 0 0 -.49 1.87l9 5a.947.947 0 0 0 .49.13h8a.863.863 0 0 0 .28-.04l14.44-4.25a1 1 0 0 1 1.28.96z"/><path d="m40 9h-4c-1.74 0-3.14 1.61-4 2.94-.86-1.33-2.26-2.94-4-2.94h-4a7.008 7.008 0 0 0 -7 7v.88a24.955 24.955 0 0 0 1.43 8.34l4.18 11.82a2.912 2.912 0 0 0 5.61-.39l2.85-7.43a1 1 0 0 1 1.86 0l2.85 7.43a2.915 2.915 0 0 0 5.61.4l4.18-11.83a24.955 24.955 0 0 0 1.43-8.34v-.88a7.008 7.008 0 0 0 -7-7zm5 7.88a22.785 22.785 0 0 1 -1.32 7.67l-4.18 11.84a.918.918 0 0 1 -.86.61.9.9 0 0 1 -.9-.77 1.6 1.6 0 0 0 -.05-.21l-2.89-7.52a3 3 0 0 0 -5.6 0l-2.89 7.52a1.6 1.6 0 0 0 -.05.21.909.909 0 0 1 -1.76.15l-4.18-11.83a22.785 22.785 0 0 1 -1.32-7.67v-.88a5 5 0 0 1 5-5h4c1.06 0 2.47 2.03 3.09 3.41a1 1 0 0 0 1.82 0c.62-1.38 2.03-3.41 3.09-3.41h4a5 5 0 0 1 5 5z"/><path d="m41 16v1h2v-1a3 3 0 0 0 -3-3h-1v2h1a1 1 0 0 1 1 1z"/><path d="m32 19c3.69 0 5-2.155 5-4h-2c0 1.74-1.88 2-3 2s-3-.26-3-2h-2c0 1.845 1.31 4 5 4z"/><path d="m46 8h2v-2h2v-2h-2v-2h-2v2h-2v2h2z"/><path d="m58 13h-2v-2h-2v2h-2v2h2v2h2v-2h2z"/><path d="m16 8h2v-2h2v-2h-2v-2h-2v2h-2v2h2z"/><path d="m8 17h2v-2h2v-2h-2v-2h-2v2h-2v2h2z"/></g></svg>