<svg id="Capa_1" enable-background="new 0 0 512 512" height="512" viewBox="0 0 512 512" width="512" xmlns="http://www.w3.org/2000/svg"><g><path d="m346.061 457.79h-38.202l-21.798-39.858v-63.353h-60.122v63.353l-21.798 39.858h-38.202c-8.284 0-15 6.716-15 15s6.716 15 15 15h180.122c8.284 0 15-6.716 15-15s-6.716-15-15-15z"/><path d="m496.431 345.057-131.231-79.485c-1.327-.804-2.718-1.486-4.14-2.097v-176.928c0-12.885-3.825-25.245-11.062-35.746-18.282-26.528-54.796-34.468-83.127-18.069l-17.498 10.126c-17.292-13.123-42.046-11.806-57.826 3.975l-20.126 20.126c-4.52 4.52-4.52 11.848 0 16.368l56.459 56.459c4.52 4.52 11.848 4.52 16.368 0l20.126-20.126c14.783-14.783 16.87-37.439 6.289-54.461l11.235-6.502c14.876-8.607 33.939-4.599 43.398 9.128 3.771 5.472 5.764 11.946 5.764 18.723v174.042h-137c-11.983 0-23.055-6.104-29.043-16.011l-102.411-169.438c-9.266-15.33-29.807-20.571-45.851-11.699l-.027.015c-16.003 8.849-21.478 28.394-12.236 43.685l121.746 201.426c5.988 9.907 17.06 16.011 29.043 16.011h172.441c6.362 0 12.593 1.728 17.965 4.982l114.813 69.541c15.625 9.464 36.329 5.056 46.259-9.849 9.944-14.926 5.318-34.719-10.328-44.196zm-165.294-84.467c.01-.08.02-.096.031 0z"/></g></svg>