<svg id="Capa_1" enable-background="new 0 0 512 512" height="512" viewBox="0 0 512 512" width="512" xmlns="http://www.w3.org/2000/svg"><g><path d="m465.857 297.606-56.33-25.604v-272.002h-95.879l-38.637 38.637c-31.764-25.129-76.927-27.531-111.318-4.742l-6.715 4.449-.001 37.519 101.749 104.921h40.691l4.449-6.715c23.559-35.556 20.196-82.623-7.369-114.495l29.577-29.574h53.453v233.273h-173.975l-85.14-72.042c-15.997-13.536-36.306-20.032-57.191-18.292-20.883 1.74-39.838 11.509-53.374 27.506l-9.689 11.451 159.841 135.25 27.79 72.254c-36.538 6.926-64.262 39.077-64.262 77.6v15h328.667v-15c0-43.56-35.44-79-79-79h-4.467l-23.568-61.275h24.923l128.524 58.421 6.207-13.656c17.901-39.381.425-85.984-38.956-103.884zm-183.107-146.821h-11.325l-84.446-87.079.001-8.693c24.66-12.367 55.124-7.786 75.008 12.099l8.665 8.663c19.882 19.884 24.463 50.348 12.097 75.01zm198.797 223.653-104.967-47.713h-194.27l-138.074-116.831c6.418-3.98 13.734-6.413 21.478-7.058 12.896-1.073 25.441 2.938 35.321 11.297l93.529 79.14h189.262l69.618 31.645c19.557 8.889 30.367 29.241 28.103 49.52zm-325.672 107.562c6.35-19.705 24.863-34 46.652-34h170.667c21.789 0 40.303 14.295 46.652 34zm63.518-64-23.568-61.275h117.191l23.568 61.275z"/></g></svg>